<?xml version="1.0" encoding="utf-8"?>
<!-- Generator: Adobe Illustrator 19.2.1, SVG Export Plug-In . SVG Version: 6.00 Build 0)  -->
<svg version="1.1" id="Layer_1" xmlns="http://www.w3.org/2000/svg" xmlns:xlink="http://www.w3.org/1999/xlink" x="0px" y="0px"
	 viewBox="0 0 1163.9 451.5" style="enable-background:new 0 0 1163.9 451.5;" xml:space="preserve">
<style type="text/css">
	.st0{fill:#FFFFFF;}
	.st1{fill:#A39D96;}
	.st2{fill:#C6BFBA;}
	.st3{fill:#FF6D00;}
	.st4{stroke:#000000;stroke-width:0.1;stroke-miterlimit:10;}
	.st5{display:none;}
	.st6{display:inline;}
	.st7{clip-path:url(#SVGID_2_);fill:none;stroke:#C6BFBA;stroke-miterlimit:10;}
	.st8{clip-path:url(#SVGID_5_);}
	.st9{fill:none;stroke:#FFFFFF;stroke-miterlimit:10;}
	.st10{fill:#706357;}
	.st11{fill:none;stroke:#C6BFBA;stroke-width:0.25;stroke-miterlimit:10;}
</style>
<g>
	<path d="M265.1,386.5c-1.1-1.3-2.2-2.2-3.4-2.8c-1.2-0.6-2.6-0.9-4-0.9c-1.6,0-3.1,0.3-4.4,0.9c-1.3,0.6-2.3,1.4-3.1,2.4
		s-1.4,2.2-1.9,3.5c-0.4,1.3-0.6,2.8-0.6,4.3c0,1.5,0.2,2.9,0.7,4.3c0.5,1.3,1.2,2.5,2,3.5c0.9,1,1.9,1.8,3.1,2.4
		c1.2,0.6,2.6,0.9,4.1,0.9c3.2,0,5.8-1.2,7.5-3.7l3.7,3.5c-1.4,1.6-3.1,2.8-5.1,3.6c-1.9,0.8-4,1.1-6.1,1.1c-2.3,0-4.4-0.4-6.3-1.1
		c-1.9-0.8-3.5-1.8-4.8-3.2c-1.3-1.4-2.4-3-3.1-4.9c-0.7-1.9-1.1-4-1.1-6.3c0-2.2,0.4-4.3,1.1-6.2c0.7-1.9,1.8-3.5,3.1-4.9
		c1.3-1.4,3-2.5,4.8-3.3c1.9-0.8,4-1.2,6.2-1.2c2.2,0,4.3,0.4,6.2,1.1c2,0.8,3.7,1.9,5.2,3.5L265.1,386.5z"/>
	<path d="M272.8,393.9c0-2.3,0.4-4.4,1.2-6.3c0.8-1.9,1.9-3.5,3.3-4.9c1.4-1.4,3.1-2.4,5-3.2c1.9-0.8,4-1.1,6.3-1.1
		c2.3,0,4.4,0.4,6.3,1.1c1.9,0.8,3.6,1.8,5,3.2c1.4,1.4,2.5,3,3.3,4.9c0.8,1.9,1.2,4,1.2,6.3c0,2.3-0.4,4.4-1.2,6.3
		c-0.8,1.9-1.9,3.5-3.3,4.9c-1.4,1.4-3.1,2.4-5,3.2c-1.9,0.8-4,1.1-6.3,1.1c-2.3,0-4.4-0.4-6.3-1.1c-1.9-0.8-3.6-1.8-5-3.2
		c-1.4-1.4-2.5-3-3.3-4.9C273.2,398.3,272.8,396.2,272.8,393.9z M278.1,393.9c0,1.6,0.2,3,0.7,4.3c0.5,1.3,1.2,2.5,2.1,3.5
		c0.9,1,2,1.8,3.3,2.3c1.3,0.6,2.7,0.9,4.3,0.9c1.6,0,3-0.3,4.3-0.9c1.3-0.6,2.4-1.3,3.3-2.3c0.9-1,1.6-2.2,2.1-3.5
		c0.5-1.3,0.7-2.8,0.7-4.3c0-1.6-0.2-3-0.7-4.3c-0.5-1.3-1.2-2.5-2.1-3.5c-0.9-1-2-1.8-3.3-2.3c-1.3-0.6-2.7-0.9-4.3-0.9
		c-1.6,0-3,0.3-4.3,0.9c-1.3,0.6-2.4,1.4-3.3,2.3c-0.9,1-1.6,2.2-2.1,3.5C278.3,390.9,278.1,392.3,278.1,393.9z"/>
	<path d="M312.1,386.1c0-1.3,0-2.6-0.1-3.8c-0.1-1.2-0.1-2.3-0.1-3.2h4.7c0,0.8,0,1.6,0.1,2.4c0,0.8,0.1,1.6,0.1,2.5h0.1
		c0.3-0.7,0.8-1.4,1.4-2.1c0.6-0.7,1.3-1.3,2.2-1.8c0.8-0.5,1.8-0.9,2.8-1.3c1.1-0.3,2.2-0.5,3.4-0.5c0.3,0,0.7,0,1,0.1
		c0.3,0,0.7,0.1,1,0.3l-0.3,5c-0.8-0.3-1.7-0.4-2.7-0.4c-3,0-5.2,1-6.6,2.9c-1.4,2-2.1,4.6-2.1,8.1v14.4h-4.9V386.1z"/>
	<path d="M334.1,379.1h4.9v4.3h0.1c1.3-1.6,2.9-2.8,4.7-3.7c1.8-0.9,3.8-1.3,5.9-1.3c2.3,0,4.4,0.4,6.4,1.2c1.9,0.8,3.6,1.9,4.9,3.3
		c1.3,1.4,2.4,3,3.2,4.9s1.1,4,1.1,6.2c0,2.2-0.4,4.3-1.1,6.2s-1.8,3.5-3.1,4.9c-1.3,1.4-2.9,2.5-4.7,3.3c-1.8,0.8-3.8,1.2-5.8,1.2
		c-2.7,0-5-0.6-7-1.7c-2-1.2-3.5-2.6-4.4-4.3H339v19.7h-4.9V379.1z M339,393.9c0,1.6,0.2,3,0.7,4.3c0.5,1.3,1.2,2.5,2.1,3.5
		c0.9,1,2,1.8,3.3,2.3c1.3,0.6,2.7,0.9,4.3,0.9c1.6,0,3-0.3,4.3-0.9c1.3-0.6,2.4-1.3,3.3-2.3c0.9-1,1.6-2.2,2.1-3.5
		c0.5-1.3,0.7-2.8,0.7-4.3c0-1.6-0.2-3-0.7-4.3c-0.5-1.3-1.2-2.5-2.1-3.5c-0.9-1-2-1.8-3.3-2.3c-1.3-0.6-2.7-0.9-4.3-0.9
		c-1.6,0-3,0.3-4.3,0.9c-1.3,0.6-2.4,1.4-3.3,2.3c-0.9,1-1.6,2.2-2.1,3.5C339.3,390.9,339,392.3,339,393.9z"/>
	<path d="M371.3,393.9c0-2.3,0.4-4.4,1.2-6.3c0.8-1.9,1.9-3.5,3.3-4.9c1.4-1.4,3.1-2.4,5-3.2c1.9-0.8,4-1.1,6.3-1.1
		c2.3,0,4.4,0.4,6.3,1.1c1.9,0.8,3.6,1.8,5,3.2c1.4,1.4,2.5,3,3.3,4.9c0.8,1.9,1.2,4,1.2,6.3c0,2.3-0.4,4.4-1.2,6.3
		c-0.8,1.9-1.9,3.5-3.3,4.9c-1.4,1.4-3.1,2.4-5,3.2c-1.9,0.8-4,1.1-6.3,1.1c-2.3,0-4.4-0.4-6.3-1.1c-1.9-0.8-3.6-1.8-5-3.2
		c-1.4-1.4-2.5-3-3.3-4.9C371.7,398.3,371.3,396.2,371.3,393.9z M376.6,393.9c0,1.6,0.2,3,0.7,4.3c0.5,1.3,1.2,2.5,2.1,3.5
		c0.9,1,2,1.8,3.3,2.3c1.3,0.6,2.7,0.9,4.3,0.9c1.6,0,3-0.3,4.3-0.9c1.3-0.6,2.4-1.3,3.3-2.3c0.9-1,1.6-2.2,2.1-3.5
		c0.5-1.3,0.7-2.8,0.7-4.3c0-1.6-0.2-3-0.7-4.3c-0.5-1.3-1.2-2.5-2.1-3.5c-0.9-1-2-1.8-3.3-2.3c-1.3-0.6-2.7-0.9-4.3-0.9
		c-1.6,0-3,0.3-4.3,0.9c-1.3,0.6-2.4,1.4-3.3,2.3c-0.9,1-1.6,2.2-2.1,3.5C376.8,390.9,376.6,392.3,376.6,393.9z"/>
	<path d="M410.6,386.1c0-1.3,0-2.6-0.1-3.8c-0.1-1.2-0.1-2.3-0.1-3.2h4.7c0,0.8,0,1.6,0.1,2.4c0,0.8,0.1,1.6,0.1,2.5h0.1
		c0.3-0.7,0.8-1.4,1.4-2.1c0.6-0.7,1.3-1.3,2.2-1.8c0.8-0.5,1.8-0.9,2.8-1.3c1.1-0.3,2.2-0.5,3.4-0.5c0.3,0,0.7,0,1,0.1
		c0.3,0,0.7,0.1,1,0.3l-0.3,5c-0.8-0.3-1.7-0.4-2.7-0.4c-3,0-5.2,1-6.6,2.9c-1.4,2-2.1,4.6-2.1,8.1v14.4h-4.9V386.1z"/>
	<path d="M432.5,382.9c1.5-1.6,3.3-2.7,5.4-3.4c2.1-0.7,4.2-1.1,6.4-1.1c4.4,0,7.5,1,9.5,3.1c1.9,2.1,2.9,5.2,2.9,9.4v12.7
		c0,0.8,0,1.7,0.1,2.6c0.1,0.9,0.2,1.7,0.3,2.5h-4.7c-0.2-0.7-0.3-1.4-0.3-2.2c0-0.8,0-1.5,0-2.2h-0.1c-1,1.5-2.3,2.8-3.9,3.7
		c-1.6,1-3.6,1.5-5.9,1.5c-1.5,0-2.9-0.2-4.3-0.6c-1.3-0.4-2.5-0.9-3.5-1.7c-1-0.7-1.8-1.7-2.4-2.8c-0.6-1.1-0.9-2.4-0.9-3.8
		c0-2.4,0.6-4.4,1.9-5.8c1.3-1.4,2.8-2.4,4.7-3.1c1.9-0.7,3.9-1.1,6.1-1.3c2.2-0.2,4.2-0.3,6-0.3h1.9v-0.9c0-2.2-0.6-3.8-1.9-4.9
		c-1.3-1.1-3.1-1.6-5.4-1.6c-1.6,0-3.2,0.3-4.7,0.8c-1.5,0.5-2.9,1.3-4.1,2.4L432.5,382.9z M446.7,394.5c-3.2,0-5.7,0.4-7.5,1.3
		c-1.9,0.9-2.8,2.3-2.8,4.4c0,1.9,0.6,3.2,1.9,4c1.2,0.8,2.8,1.2,4.6,1.2c1.4,0,2.7-0.2,3.8-0.7c1.1-0.5,2-1.1,2.7-1.9
		c0.7-0.8,1.3-1.7,1.6-2.8s0.6-2.2,0.6-3.4v-1.9H446.7z"/>
	<path d="M481.9,383.3h-8.7v14.8c0,1,0,1.9,0.1,2.7c0,0.8,0.2,1.5,0.5,2.2c0.3,0.6,0.7,1.1,1.3,1.5c0.6,0.4,1.4,0.5,2.5,0.5
		c0.7,0,1.5-0.1,2.2-0.3c0.8-0.2,1.5-0.4,2.2-0.8l0.2,4.5c-0.8,0.4-1.8,0.7-2.8,0.8c-1,0.2-2,0.3-2.9,0.3c-1.8,0-3.2-0.2-4.2-0.7
		c-1.1-0.5-1.9-1.1-2.5-2c-0.6-0.8-1-1.9-1.2-3.1c-0.2-1.2-0.3-2.6-0.3-4.1v-16.3h-6.5v-4.2h6.5v-8.4h4.9v8.4h8.7V383.3z"/>
	<path d="M514.4,403.3c-1.8,2.3-3.7,3.9-5.8,4.8c-2.1,0.9-4.6,1.4-7.3,1.4c-2.3,0-4.4-0.4-6.3-1.2c-1.9-0.8-3.4-1.9-4.7-3.3
		c-1.3-1.4-2.3-3-3-4.9c-0.7-1.9-1-3.9-1-6.1c0-2.3,0.4-4.4,1.1-6.3c0.8-1.9,1.8-3.6,3.2-4.9c1.3-1.4,3-2.4,4.8-3.2
		c1.9-0.8,3.9-1.1,6.1-1.1c2.1,0,4,0.3,5.7,1c1.7,0.7,3.2,1.7,4.5,3c1.2,1.3,2.2,3,2.9,4.9c0.7,1.9,1,4.1,1,6.5v1.6h-23.9
		c0.1,1.3,0.4,2.5,0.9,3.6c0.5,1.2,1.2,2.2,2.1,3c0.8,0.9,1.8,1.6,3,2.1c1.1,0.5,2.4,0.8,3.7,0.8c2.2,0,4-0.4,5.4-1.1
		c1.5-0.8,2.8-1.9,4-3.4L514.4,403.3z M510.1,391.2c-0.1-2.5-0.9-4.6-2.5-6.1c-1.6-1.5-3.7-2.3-6.5-2.3c-2.7,0-5,0.8-6.6,2.3
		c-1.7,1.5-2.7,3.5-3,6.1H510.1z"/>
	<path d="M526.6,417.4h-4.9l4.3-15.2h5.8L526.6,417.4z"/>
	<path d="M579.4,386.5c-1.1-1.3-2.2-2.2-3.4-2.8c-1.2-0.6-2.6-0.9-4-0.9c-1.6,0-3.1,0.3-4.4,0.9c-1.3,0.6-2.3,1.4-3.1,2.4
		s-1.4,2.2-1.9,3.5c-0.4,1.3-0.6,2.8-0.6,4.3c0,1.5,0.2,2.9,0.7,4.3c0.5,1.3,1.2,2.5,2,3.5c0.9,1,1.9,1.8,3.1,2.4
		c1.2,0.6,2.6,0.9,4.1,0.9c3.2,0,5.8-1.2,7.5-3.7l3.7,3.5c-1.4,1.6-3.1,2.8-5.1,3.6c-1.9,0.8-4,1.1-6.1,1.1c-2.3,0-4.4-0.4-6.3-1.1
		c-1.9-0.8-3.5-1.8-4.8-3.2c-1.3-1.4-2.4-3-3.1-4.9c-0.7-1.9-1.1-4-1.1-6.3c0-2.2,0.4-4.3,1.1-6.2c0.7-1.9,1.8-3.5,3.1-4.9
		c1.3-1.4,3-2.5,4.8-3.3c1.9-0.8,4-1.2,6.2-1.2c2.2,0,4.3,0.4,6.2,1.1c2,0.8,3.7,1.9,5.2,3.5L579.4,386.5z"/>
	<path d="M587.1,393.9c0-2.3,0.4-4.4,1.2-6.3c0.8-1.9,1.9-3.5,3.3-4.9c1.4-1.4,3.1-2.4,5-3.2c1.9-0.8,4-1.1,6.3-1.1
		c2.3,0,4.4,0.4,6.3,1.1c1.9,0.8,3.6,1.8,5,3.2c1.4,1.4,2.5,3,3.3,4.9c0.8,1.9,1.2,4,1.2,6.3c0,2.3-0.4,4.4-1.2,6.3
		c-0.8,1.9-1.9,3.5-3.3,4.9c-1.4,1.4-3.1,2.4-5,3.2c-1.9,0.8-4,1.1-6.3,1.1c-2.3,0-4.4-0.4-6.3-1.1c-1.9-0.8-3.6-1.8-5-3.2
		c-1.4-1.4-2.5-3-3.3-4.9C587.5,398.3,587.1,396.2,587.1,393.9z M592.4,393.9c0,1.6,0.2,3,0.7,4.3c0.5,1.3,1.2,2.5,2.1,3.5
		c0.9,1,2,1.8,3.3,2.3c1.3,0.6,2.7,0.9,4.3,0.9c1.6,0,3-0.3,4.3-0.9c1.3-0.6,2.4-1.3,3.3-2.3c0.9-1,1.6-2.2,2.1-3.5
		c0.5-1.3,0.7-2.8,0.7-4.3c0-1.6-0.2-3-0.7-4.3c-0.5-1.3-1.2-2.5-2.1-3.5c-0.9-1-2-1.8-3.3-2.3c-1.3-0.6-2.7-0.9-4.3-0.9
		c-1.6,0-3,0.3-4.3,0.9c-1.3,0.6-2.4,1.4-3.3,2.3c-0.9,1-1.6,2.2-2.1,3.5C592.6,390.9,592.4,392.3,592.4,393.9z"/>
	<path d="M626.4,386.1c0-1.3,0-2.6-0.1-3.8c-0.1-1.2-0.1-2.3-0.1-3.2h4.7c0,0.8,0,1.6,0.1,2.4c0,0.8,0.1,1.6,0.1,2.5h0.1
		c0.3-0.7,0.8-1.4,1.4-2.1c0.6-0.7,1.3-1.3,2.2-1.8c0.8-0.5,1.8-0.9,2.8-1.3c1.1-0.3,2.2-0.5,3.4-0.5c1.9,0,3.6,0.3,5,0.9
		c1.4,0.6,2.6,1.4,3.5,2.5c0.9,1.1,1.6,2.3,2.1,3.8c0.4,1.5,0.7,3.1,0.7,4.9v18.3h-4.9v-17.8c0-2.5-0.5-4.4-1.6-5.9
		c-1.1-1.4-2.8-2.2-5.1-2.2c-1.6,0-3,0.3-4.1,0.8c-1.2,0.5-2.1,1.3-2.8,2.3c-0.7,1-1.3,2.2-1.6,3.6c-0.4,1.4-0.5,2.9-0.5,4.6v14.4
		h-4.9V386.1z"/>
	<path d="M682.6,386.5c-1.1-1.3-2.2-2.2-3.4-2.8c-1.2-0.6-2.6-0.9-4-0.9c-1.6,0-3.1,0.3-4.4,0.9c-1.3,0.6-2.3,1.4-3.1,2.4
		s-1.4,2.2-1.9,3.5c-0.4,1.3-0.6,2.8-0.6,4.3c0,1.5,0.2,2.9,0.7,4.3c0.5,1.3,1.2,2.5,2,3.5c0.9,1,1.9,1.8,3.1,2.4
		c1.2,0.6,2.6,0.9,4.1,0.9c3.2,0,5.8-1.2,7.5-3.7l3.7,3.5c-1.4,1.6-3.1,2.8-5.1,3.6c-1.9,0.8-4,1.1-6.1,1.1c-2.3,0-4.4-0.4-6.3-1.1
		c-1.9-0.8-3.5-1.8-4.8-3.2c-1.3-1.4-2.4-3-3.1-4.9c-0.7-1.9-1.1-4-1.1-6.3c0-2.2,0.4-4.3,1.1-6.2c0.7-1.9,1.8-3.5,3.1-4.9
		c1.3-1.4,3-2.5,4.8-3.3c1.9-0.8,4-1.2,6.2-1.2c2.2,0,4.3,0.4,6.2,1.1c2,0.8,3.7,1.9,5.2,3.5L682.6,386.5z"/>
	<path d="M718.5,403.3c-1.8,2.3-3.7,3.9-5.8,4.8c-2.1,0.9-4.6,1.4-7.3,1.4c-2.3,0-4.4-0.4-6.3-1.2c-1.9-0.8-3.4-1.9-4.7-3.3
		c-1.3-1.4-2.3-3-3-4.9c-0.7-1.9-1-3.9-1-6.1c0-2.3,0.4-4.4,1.1-6.3c0.8-1.9,1.8-3.6,3.2-4.9c1.3-1.4,3-2.4,4.8-3.2
		c1.9-0.8,3.9-1.1,6.1-1.1c2.1,0,4,0.3,5.7,1c1.7,0.7,3.2,1.7,4.5,3c1.2,1.3,2.2,3,2.9,4.9c0.7,1.9,1,4.1,1,6.5v1.6h-23.9
		c0.1,1.3,0.4,2.5,0.9,3.6c0.5,1.2,1.2,2.2,2.1,3c0.8,0.9,1.8,1.6,3,2.1c1.1,0.5,2.4,0.8,3.7,0.8c2.2,0,4-0.4,5.4-1.1
		c1.5-0.8,2.8-1.9,4-3.4L718.5,403.3z M714.2,391.2c-0.1-2.5-0.9-4.6-2.5-6.1c-1.6-1.5-3.7-2.3-6.5-2.3c-2.7,0-5,0.8-6.6,2.3
		c-1.7,1.5-2.7,3.5-3,6.1H714.2z"/>
	<path d="M726.9,379.1h4.9v4.3h0.1c1.3-1.6,2.9-2.8,4.7-3.7c1.8-0.9,3.8-1.3,5.9-1.3c2.3,0,4.4,0.4,6.4,1.2c1.9,0.8,3.6,1.9,4.9,3.3
		c1.3,1.4,2.4,3,3.2,4.9s1.1,4,1.1,6.2c0,2.2-0.4,4.3-1.1,6.2s-1.8,3.5-3.1,4.9c-1.3,1.4-2.9,2.5-4.7,3.3c-1.8,0.8-3.8,1.2-5.8,1.2
		c-2.7,0-5-0.6-7-1.7c-2-1.2-3.5-2.6-4.4-4.3h-0.1v19.7h-4.9V379.1z M731.9,393.9c0,1.6,0.2,3,0.7,4.3c0.5,1.3,1.2,2.5,2.1,3.5
		c0.9,1,2,1.8,3.3,2.3c1.3,0.6,2.7,0.9,4.3,0.9c1.6,0,3-0.3,4.3-0.9c1.3-0.6,2.4-1.3,3.3-2.3c0.9-1,1.6-2.2,2.1-3.5
		c0.5-1.3,0.7-2.8,0.7-4.3c0-1.6-0.2-3-0.7-4.3c-0.5-1.3-1.2-2.5-2.1-3.5c-0.9-1-2-1.8-3.3-2.3c-1.3-0.6-2.7-0.9-4.3-0.9
		c-1.6,0-3,0.3-4.3,0.9c-1.3,0.6-2.4,1.4-3.3,2.3c-0.9,1-1.6,2.2-2.1,3.5C732.1,390.9,731.9,392.3,731.9,393.9z"/>
	<path d="M782.1,383.3h-8.7v14.8c0,1,0,1.9,0.1,2.7c0,0.8,0.2,1.5,0.5,2.2c0.3,0.6,0.7,1.1,1.3,1.5c0.6,0.4,1.4,0.5,2.5,0.5
		c0.7,0,1.5-0.1,2.2-0.3c0.8-0.2,1.5-0.4,2.2-0.8l0.2,4.5c-0.8,0.4-1.8,0.7-2.8,0.8c-1,0.2-2,0.3-2.9,0.3c-1.8,0-3.2-0.2-4.2-0.7
		c-1.1-0.5-1.9-1.1-2.5-2c-0.6-0.8-1-1.9-1.2-3.1c-0.2-1.2-0.3-2.6-0.3-4.1v-16.3h-6.5v-4.2h6.5v-8.4h4.9v8.4h8.7V383.3z"/>
	<path class="st4" d="M812,384.7v-0.1c0,0-6.1-2-6.1-9.9c0-6.6,5.1-11.3,13.2-11.3c2.4,0,5.2,0.7,5.2,0.7l-1.3,3.6
		c0,0-2.1-0.4-3.7-0.4c-5.1,0-8.9,3-8.9,7.7c0,3,1.3,8,9.6,8h9.2v-6.1h4.4v6.1h5.9v3.9h-5.9v6.5c0,10.6-5.8,16-14.6,16
		s-15-5.7-15-13.2C803.9,391.4,806.7,386.2,812,384.7z M818.9,405.3c6.1,0,10.2-3.5,10.2-12v-6.4h-9.1c-7.8,0-11.6,3.7-11.6,9.2
		C808.4,401.2,812.3,405.3,818.9,405.3z"/>
	<path d="M883.8,386.5c-1.1-1.3-2.2-2.2-3.4-2.8c-1.2-0.6-2.6-0.9-4-0.9c-1.6,0-3.1,0.3-4.4,0.9c-1.3,0.6-2.3,1.4-3.1,2.4
		s-1.4,2.2-1.9,3.5c-0.4,1.3-0.6,2.8-0.6,4.3c0,1.5,0.2,2.9,0.7,4.3c0.5,1.3,1.2,2.5,2,3.5c0.9,1,1.9,1.8,3.1,2.4
		c1.2,0.6,2.6,0.9,4.1,0.9c3.2,0,5.8-1.2,7.5-3.7l3.7,3.5c-1.4,1.6-3.1,2.8-5.1,3.6c-1.9,0.8-4,1.1-6.1,1.1c-2.3,0-4.4-0.4-6.3-1.1
		c-1.9-0.8-3.5-1.8-4.8-3.2c-1.3-1.4-2.4-3-3.1-4.9c-0.7-1.9-1.1-4-1.1-6.3c0-2.2,0.4-4.3,1.1-6.2c0.7-1.9,1.8-3.5,3.1-4.9
		c1.3-1.4,3-2.5,4.8-3.3c1.9-0.8,4-1.2,6.2-1.2c2.2,0,4.3,0.4,6.2,1.1c2,0.8,3.7,1.9,5.2,3.5L883.8,386.5z"/>
	<path d="M893.3,360.9h4.9v22.3h0.1c0.3-0.6,0.8-1.2,1.4-1.7c0.6-0.6,1.3-1.1,2.1-1.6c0.8-0.5,1.7-0.8,2.8-1.1
		c1-0.3,2.1-0.4,3.2-0.4c1.9,0,3.6,0.3,5,0.9c1.4,0.6,2.6,1.4,3.5,2.5c0.9,1.1,1.6,2.3,2.1,3.8c0.4,1.5,0.7,3.1,0.7,4.9v18.3h-4.9
		v-17.8c0-2.5-0.5-4.4-1.6-5.9c-1.1-1.4-2.8-2.2-5.1-2.2c-1.6,0-3,0.3-4.1,0.8c-1.2,0.5-2.1,1.3-2.8,2.3c-0.7,1-1.3,2.2-1.6,3.6
		c-0.4,1.4-0.5,2.9-0.5,4.6v14.4h-4.9V360.9z"/>
	<path d="M928.1,382.9c1.5-1.6,3.3-2.7,5.4-3.4c2.1-0.7,4.2-1.1,6.4-1.1c4.4,0,7.5,1,9.5,3.1c1.9,2.1,2.9,5.2,2.9,9.4v12.7
		c0,0.8,0,1.7,0.1,2.6c0.1,0.9,0.2,1.7,0.3,2.5h-4.7c-0.2-0.7-0.3-1.4-0.3-2.2c0-0.8,0-1.5,0-2.2h-0.1c-1,1.5-2.3,2.8-3.9,3.7
		c-1.6,1-3.6,1.5-5.9,1.5c-1.5,0-2.9-0.2-4.3-0.6c-1.3-0.4-2.5-0.9-3.5-1.7c-1-0.7-1.8-1.7-2.4-2.8c-0.6-1.1-0.9-2.4-0.9-3.8
		c0-2.4,0.6-4.4,1.9-5.8c1.3-1.4,2.8-2.4,4.7-3.1c1.9-0.7,3.9-1.1,6.1-1.3c2.2-0.2,4.2-0.3,6-0.3h1.9v-0.9c0-2.2-0.6-3.8-1.9-4.9
		c-1.3-1.1-3.1-1.6-5.4-1.6c-1.6,0-3.2,0.3-4.7,0.8c-1.5,0.5-2.9,1.3-4.1,2.4L928.1,382.9z M942.4,394.5c-3.2,0-5.7,0.4-7.5,1.3
		c-1.9,0.9-2.8,2.3-2.8,4.4c0,1.9,0.6,3.2,1.9,4c1.2,0.8,2.8,1.2,4.6,1.2c1.4,0,2.7-0.2,3.8-0.7c1.1-0.5,2-1.1,2.7-1.9
		c0.7-0.8,1.3-1.7,1.6-2.8s0.6-2.2,0.6-3.4v-1.9H942.4z"/>
	<path d="M961.3,386.1c0-1.3,0-2.6-0.1-3.8c-0.1-1.2-0.1-2.3-0.1-3.2h4.7c0,0.8,0,1.6,0.1,2.4c0,0.8,0.1,1.6,0.1,2.5h0.1
		c0.3-0.7,0.8-1.4,1.4-2.1c0.6-0.7,1.3-1.3,2.2-1.8c0.8-0.5,1.8-0.9,2.8-1.3c1.1-0.3,2.2-0.5,3.4-0.5c0.3,0,0.7,0,1,0.1
		c0.3,0,0.7,0.1,1,0.3l-0.3,5c-0.8-0.3-1.7-0.4-2.7-0.4c-3,0-5.2,1-6.6,2.9c-1.4,2-2.1,4.6-2.1,8.1v14.4h-4.9V386.1z"/>
	<path d="M983.2,382.9c1.5-1.6,3.3-2.7,5.4-3.4c2.1-0.7,4.2-1.1,6.4-1.1c4.4,0,7.5,1,9.5,3.1c1.9,2.1,2.9,5.2,2.9,9.4v12.7
		c0,0.8,0,1.7,0.1,2.6c0.1,0.9,0.2,1.7,0.3,2.5h-4.7c-0.2-0.7-0.3-1.4-0.3-2.2c0-0.8,0-1.5,0-2.2h-0.1c-1,1.5-2.3,2.8-3.9,3.7
		c-1.6,1-3.6,1.5-5.9,1.5c-1.5,0-2.9-0.2-4.3-0.6c-1.3-0.4-2.5-0.9-3.5-1.7c-1-0.7-1.8-1.7-2.4-2.8c-0.6-1.1-0.9-2.4-0.9-3.8
		c0-2.4,0.6-4.4,1.9-5.8c1.3-1.4,2.8-2.4,4.7-3.1c1.9-0.7,3.9-1.1,6.1-1.3c2.2-0.2,4.2-0.3,6-0.3h1.9v-0.9c0-2.2-0.6-3.8-1.9-4.9
		c-1.3-1.1-3.1-1.6-5.4-1.6c-1.6,0-3.2,0.3-4.7,0.8c-1.5,0.5-2.9,1.3-4.1,2.4L983.2,382.9z M997.5,394.5c-3.2,0-5.7,0.4-7.5,1.3
		c-1.9,0.9-2.8,2.3-2.8,4.4c0,1.9,0.6,3.2,1.9,4c1.2,0.8,2.8,1.2,4.6,1.2c1.4,0,2.7-0.2,3.8-0.7c1.1-0.5,2-1.1,2.7-1.9
		c0.7-0.8,1.3-1.7,1.6-2.8s0.6-2.2,0.6-3.4v-1.9H997.5z"/>
	<path d="M1037.4,386.5c-1.1-1.3-2.2-2.2-3.4-2.8c-1.2-0.6-2.6-0.9-4-0.9c-1.6,0-3.1,0.3-4.4,0.9c-1.3,0.6-2.3,1.4-3.1,2.4
		s-1.4,2.2-1.9,3.5c-0.4,1.3-0.6,2.8-0.6,4.3c0,1.5,0.2,2.9,0.7,4.3c0.5,1.3,1.2,2.5,2,3.5c0.9,1,1.9,1.8,3.1,2.4
		c1.2,0.6,2.6,0.9,4.1,0.9c3.2,0,5.8-1.2,7.5-3.7l3.7,3.5c-1.4,1.6-3.1,2.8-5.1,3.6c-1.9,0.8-4,1.1-6.1,1.1c-2.3,0-4.4-0.4-6.3-1.1
		c-1.9-0.8-3.5-1.8-4.8-3.2c-1.3-1.4-2.4-3-3.1-4.9c-0.7-1.9-1.1-4-1.1-6.3c0-2.2,0.4-4.3,1.1-6.2c0.7-1.9,1.8-3.5,3.1-4.9
		c1.3-1.4,3-2.5,4.8-3.3c1.9-0.8,4-1.2,6.2-1.2c2.2,0,4.3,0.4,6.2,1.1c2,0.8,3.7,1.9,5.2,3.5L1037.4,386.5z"/>
	<path d="M1063.1,383.3h-8.7v14.8c0,1,0,1.9,0.1,2.7c0,0.8,0.2,1.5,0.5,2.2c0.3,0.6,0.7,1.1,1.3,1.5c0.6,0.4,1.4,0.5,2.5,0.5
		c0.7,0,1.5-0.1,2.2-0.3c0.8-0.2,1.5-0.4,2.2-0.8l0.2,4.5c-0.8,0.4-1.8,0.7-2.8,0.8c-1,0.2-2,0.3-2.9,0.3c-1.8,0-3.2-0.2-4.2-0.7
		c-1.1-0.5-1.9-1.1-2.5-2c-0.6-0.8-1-1.9-1.2-3.1c-0.2-1.2-0.3-2.6-0.3-4.1v-16.3h-6.5v-4.2h6.5v-8.4h4.9v8.4h8.7V383.3z"/>
	<path d="M1095.6,403.3c-1.8,2.3-3.7,3.9-5.8,4.8c-2.1,0.9-4.6,1.4-7.3,1.4c-2.3,0-4.4-0.4-6.3-1.2c-1.9-0.8-3.4-1.9-4.7-3.3
		c-1.3-1.4-2.3-3-3-4.9c-0.7-1.9-1-3.9-1-6.1c0-2.3,0.4-4.4,1.1-6.3c0.8-1.9,1.8-3.6,3.2-4.9c1.3-1.4,3-2.4,4.8-3.2
		c1.9-0.8,3.9-1.1,6.1-1.1c2.1,0,4,0.3,5.7,1c1.7,0.7,3.2,1.7,4.5,3c1.2,1.3,2.2,3,2.9,4.9c0.7,1.9,1,4.1,1,6.5v1.6h-23.9
		c0.1,1.3,0.4,2.5,0.9,3.6c0.5,1.2,1.2,2.2,2.1,3c0.8,0.9,1.8,1.6,3,2.1c1.1,0.5,2.4,0.8,3.7,0.8c2.2,0,4-0.4,5.4-1.1
		c1.5-0.8,2.8-1.9,4-3.4L1095.6,403.3z M1091.3,391.2c-0.1-2.5-0.9-4.6-2.5-6.1c-1.6-1.5-3.7-2.3-6.5-2.3c-2.7,0-5,0.8-6.6,2.3
		c-1.7,1.5-2.7,3.5-3,6.1H1091.3z"/>
	<path d="M1104.3,386.1c0-1.3,0-2.6-0.1-3.8c-0.1-1.2-0.1-2.3-0.1-3.2h4.7c0,0.8,0,1.6,0.1,2.4c0,0.8,0.1,1.6,0.1,2.5h0.1
		c0.3-0.7,0.8-1.4,1.4-2.1c0.6-0.7,1.3-1.3,2.2-1.8c0.8-0.5,1.8-0.9,2.8-1.3c1.1-0.3,2.2-0.5,3.4-0.5c0.3,0,0.7,0,1,0.1
		c0.3,0,0.7,0.1,1,0.3l-0.3,5c-0.8-0.3-1.7-0.4-2.7-0.4c-3,0-5.2,1-6.6,2.9c-1.4,2-2.1,4.6-2.1,8.1v14.4h-4.9V386.1z"/>
</g>
<path class="st2" d="M191.8,278.1c-25,0-53.5-24-53.5-53.5c0-29.6,28.5-53.5,53.5-53.5v-16.7c-38,0-73.6,31.4-73.6,70.2
	s35.6,70.2,73.6,70.2V278.1z"/>
<g>
	<path class="st2" d="M68.8,33.8h18.5C64.5,90.6,54.1,149.7,54.1,215.2c0,68.8,11.3,138,35.1,199.4H71
		C48.5,360.1,34.4,289,34.4,217.5C34.4,150.1,46,87.8,68.8,33.8z"/>
</g>
<polygon class="st2" points="482.5,168.3 469.3,155.1 413,211.5 399.8,224.7 469.3,294.2 482.5,281 426.2,224.7 "/>
<path class="st2" d="M340.8,214.9v-12h-18v12h-21.3c-19.7,0-23.5-11.6-23.5-19.5c0-11.4,9.1-19.4,22.3-19.4c4.3,0,9.6,1.4,9.6,1.4
	l4.5-14.2c0,0-7.8-2-16.1-2c-23,0-37.1,13.2-37.1,32.9c0,22.3,17.7,28.2,17.7,28.2v0.4c-19,4.2-23.3,18.6-23.3,31.8
	c0,21.9,19.1,38.7,45.2,38.7c2.9,0,3.1-0.2,9.1-0.6v-17c-6,0.7-6.8,1.1-9.8,1.1c-16.3,0-26.8-9.2-26.8-21.3
	c0-14.3,9.8-21.6,28.4-21.6h5.2h15.9v14v46h18v-60h19v-19H340.8z"/>
</svg>
